<svg xmlns="http://www.w3.org/2000/svg" viewBox="0 0 320 240" role="img" aria-labelledby="title desc">
  <title id="title">Product placeholder</title>
  <desc id="desc">Illustrated grocery bag placeholder for products without an image.</desc>
  <defs>
    <linearGradient id="bg" x1="0%" y1="0%" x2="100%" y2="100%">
      <stop offset="0%" stop-color="#f6f8fb" />
      <stop offset="100%" stop-color="#e6f4ef" />
    </linearGradient>
    <linearGradient id="bag" x1="0%" y1="0%" x2="100%" y2="100%">
      <stop offset="0%" stop-color="#f8d68a" />
      <stop offset="100%" stop-color="#e4b55b" />
    </linearGradient>
  </defs>
  <rect width="320" height="240" rx="24" fill="url(#bg)" />
  <circle cx="252" cy="56" r="30" fill="#d7efe4" />
  <circle cx="68" cy="194" r="40" fill="#eef5fb" />
  <path d="M113 81c0-26 21-47 47-47s47 21 47 47" fill="none" stroke="#8f6c2b" stroke-linecap="round" stroke-width="12" />
  <path d="M96 91h128l-14 103c-2 13-13 23-27 23h-46c-14 0-25-10-27-23z" fill="url(#bag)" />
  <rect x="121" y="98" width="78" height="42" rx="12" fill="#ffffff" opacity="0.92" />
  <circle cx="144" cy="116" r="12" fill="#ef6b4a" />
  <path d="M144 104v24M132 116h24" stroke="#ffffff" stroke-linecap="round" stroke-width="5" />
  <path d="M213 102c10 3 18 12 20 24" fill="none" stroke="#84c7a5" stroke-linecap="round" stroke-width="8" />
  <path d="M100 109c-8 5-13 13-14 23" fill="none" stroke="#84c7a5" stroke-linecap="round" stroke-width="8" />
  <text x="160" y="171" fill="#5c6670" font-family="Arial, sans-serif" font-size="20" font-weight="700" text-anchor="middle">
    Smart Grocery
  </text>
  <text x="160" y="194" fill="#77818b" font-family="Arial, sans-serif" font-size="14" text-anchor="middle">
    Image coming soon
  </text>
</svg>
